<svg width="136" height="108" viewBox="0 0 136 108" fill="none" xmlns="http://www.w3.org/2000/svg">
<g clip-path="url(#clip0_340_51)">
<path d="M14.9509 14.1141C14.6951 6.77118 20.4162 0 28.1494 0H107.39C115.123 0 120.844 6.77118 120.588 14.1141C120.343 21.1677 120.662 30.3049 122.961 37.755C125.268 45.2282 129.158 49.9519 135.529 50.5588V57.4412C129.158 58.0481 125.268 62.7718 122.961 70.245C120.662 77.6952 120.343 86.8323 120.588 93.8862C120.844 101.229 115.123 108 107.39 108H28.1494C20.4162 108 14.6951 101.229 14.9511 93.8862C15.1965 86.8323 14.8775 77.6952 12.5778 70.245C10.2711 62.7718 6.37147 58.0481 0 57.4412V50.5588C6.37121 49.9519 10.2711 45.2282 12.5778 37.755C14.8775 30.3049 15.1965 21.1677 14.9509 14.1141Z" fill="url(#paint0_linear_340_51)"/>
<g filter="url(#filter0_d_340_51)">
<path d="M70.7037 82.7092C83.2235 82.7092 90.7679 76.5792 90.7679 66.4682C90.7679 58.8254 85.3848 53.2922 77.3918 52.4163V52.0979C83.2643 51.1425 87.8726 45.6891 87.8726 39.5987C87.8726 30.9209 81.0214 25.2681 70.5814 25.2681H47.0914V82.7092H70.7037ZM56.2264 32.5528H68.3793C74.9859 32.5528 78.7376 35.4984 78.7376 40.8325C78.7376 46.525 74.3741 49.7094 66.4626 49.7094H56.2264V32.5528ZM56.2264 75.4248V56.5166H68.2976C76.9431 56.5166 81.4291 59.701 81.4291 65.911C81.4291 72.1207 77.0657 75.4248 68.8278 75.4248H56.2264Z" fill="url(#paint1_linear_340_51)"/>
<path d="M70.7037 82.7092C83.2235 82.7092 90.7679 76.5792 90.7679 66.4682C90.7679 58.8254 85.3848 53.2922 77.3918 52.4163V52.0979C83.2643 51.1425 87.8726 45.6891 87.8726 39.5987C87.8726 30.9209 81.0214 25.2681 70.5814 25.2681H47.0914V82.7092H70.7037ZM56.2264 32.5528H68.3793C74.9859 32.5528 78.7376 35.4984 78.7376 40.8325C78.7376 46.525 74.3741 49.7094 66.4626 49.7094H56.2264V32.5528ZM56.2264 75.4248V56.5166H68.2976C76.9431 56.5166 81.4291 59.701 81.4291 65.911C81.4291 72.1207 77.0657 75.4248 68.8278 75.4248H56.2264Z" stroke="white"/>
</g>
</g>
<defs>
<filter id="filter0_d_340_51" x="30.5914" y="12.7681" width="76.6765" height="90.4412" filterUnits="userSpaceOnUse" color-interpolation-filters="sRGB">
<feFlood flood-opacity="0" result="BackgroundImageFix"/>
<feColorMatrix in="SourceAlpha" type="matrix" values="0 0 0 0 0 0 0 0 0 0 0 0 0 0 0 0 0 0 127 0" result="hardAlpha"/>
<feOffset dy="4"/>
<feGaussianBlur stdDeviation="8"/>
<feColorMatrix type="matrix" values="0 0 0 0 0 0 0 0 0 0 0 0 0 0 0 0 0 0 0.15 0"/>
<feBlend mode="normal" in2="BackgroundImageFix" result="effect1_dropShadow_340_51"/>
<feBlend mode="normal" in="SourceGraphic" in2="effect1_dropShadow_340_51" result="shape"/>
</filter>
<linearGradient id="paint0_linear_340_51" x1="20.1386" y1="2.8583" x2="138.568" y2="96.8678" gradientUnits="userSpaceOnUse">
<stop stop-color="#9013FE"/>
<stop offset="1" stop-color="#6610F2"/>
</linearGradient>
<linearGradient id="paint1_linear_340_51" x1="51.2227" y1="29.0489" x2="77.6949" y2="73.8191" gradientUnits="userSpaceOnUse">
<stop stop-color="white"/>
<stop offset="1" stop-color="#F1E5FC"/>
</linearGradient>
<clipPath id="clip0_340_51">
<rect width="135.529" height="108" fill="white"/>
</clipPath>
</defs>
</svg>
