<svg width="122" height="108" viewBox="0 0 122 108" fill="none" xmlns="http://www.w3.org/2000/svg">
<path d="M36.1782 96.1687C31.5662 92.5412 26.6464 89.0632 23.2846 84.1658C16.2107 75.5294 10.7641 65.5302 7.04056 55.0223C4.78995 48.1896 4.01915 40.8641 1.11782 34.2954C-1.91726 29.5245 1.63792 24.3092 6.86382 22.7927C9.1905 22.3461 13.2815 20.1515 8.34324 21.7201C3.91591 24.9684 3.48744 18.7716 8.02732 18.3792C11.1256 17.9674 12.2661 15.431 11.2066 13.1478C7.88079 10.979 19.2712 8.59541 13.54 5.35924C7.56965 -1.08211 21.8913 -2.32209 18.3579 4.99331C17.5121 10.6186 28.3652 3.96232 25.8471 10.4583C28.4065 13.5778 35.4316 11.1683 35.2573 15.5448C38.9857 15.801 40.2654 18.9382 43.7654 19.179C47.3928 20.8171 53.9688 22.108 55.2031 26.1957C51.6043 29.0449 43.2707 20.3104 42.8703 28.1973C43.9575 39.848 43.6805 51.8498 47.9432 62.9448C49.9594 69.6628 54.8472 74.9512 59.2614 80.1836C63.4849 85.308 69.2058 88.9153 75.0369 91.9529C80.1519 94.3653 85.6665 95.9652 91.2411 96.9691C93.5021 95.2397 97.4939 88.8101 101.021 91.5213C101.188 94.5677 94.0203 97.8895 100.684 97.5528C104.597 96.3725 107.311 100.579 110.533 96.7847C113.501 100.301 122.871 94.538 120.759 101.725C117.903 103.568 113.737 102.455 110.877 104.99C106.16 102.634 102.405 107.097 97.1829 106.533C91.3839 107.572 85.4843 107.991 79.6051 108C69.9598 107.238 60.1103 106.917 50.9345 103.559C45.7655 102.057 40.7212 99.1133 36.1782 96.1687ZM44.3241 99.6982C49.3715 101.881 54.3069 104.181 59.8384 104.875C68.6143 106.096 77.677 107.973 86.4844 106.261C82.4983 104.461 78.3773 106.962 74.4062 104.974C69.6434 105.999 64.5324 104.713 59.6904 104.08C54.1843 101.627 48.2423 99.9405 43.0861 96.7569C36.6431 94.4036 46.4182 99.7749 48.1582 100.21C52.1858 102.496 43.7291 99.038 42.5368 98.0876C39.1634 96.1953 38.7335 96.5907 42.2028 98.5125C42.9016 98.9215 43.5921 99.3499 44.3241 99.6982ZM34.7199 92.9109C39.6109 94.7225 34.6983 89.4714 32.4571 89.7765C31.4641 88.0538 28.6632 86.9655 30.639 86.04C27.085 87.2738 26.9161 81.3483 25.2455 82.1949C21.4858 81.0077 23.7822 76.8021 19.3037 74.2194C18.8949 71.4981 14.8541 69.1377 13.5653 65.0329C12.996 62.9312 9.00003 56.896 11.4548 62.5127C13.5449 67.9197 17.2223 72.5502 20.2825 77.1753C22.6588 81.579 25.4647 86.1814 29.7924 88.9285C31.2512 90.3279 32.6598 92.4722 34.7199 92.9109ZM20.6298 77.4411C20.8006 76.7025 21.5244 79.0397 20.6298 77.4411V77.4411ZM40.5774 95.0826C39.0199 94.4716 41.6604 94.5976 40.5774 95.0826V95.0826ZM43.2324 96.0511C42.0204 96.7989 42.9575 94.7138 43.2324 96.0511V96.0511ZM46.5558 97.4374C44.1174 96.4875 48.138 95.9309 46.5558 97.4374V97.4374ZM52.2519 100.612C49.1747 100.076 53.2133 99.191 52.2519 100.612V100.612ZM41.3139 92.9873C38.1397 92.9653 43.7714 91.3975 41.3139 92.9873V92.9873ZM43.807 94.2304C42.9185 94.6068 43.7374 93.3899 43.807 94.2304V94.2304ZM56.2676 102.008C58.2707 103.272 67.9649 104.778 61.8945 102.526C60.8788 102.74 50.6386 99.6296 56.2676 102.008ZM36.4861 86.6013C33.3768 85.6707 36.2913 85.7584 36.4861 86.6013V86.6013ZM42.2869 89.9821C39.1535 89.17 43.7966 88.9292 42.2869 89.9821V89.9821ZM47.1662 92.9738C43.6518 92.1532 49.3326 92.1571 47.1662 92.9738V92.9738ZM34.1256 84.0305C36.4761 85.8331 43.6051 84.2615 37.7253 82.9545C35.0492 81.528 29.0178 80.5516 33.1289 83.8147L34.1256 84.0305ZM50.471 94.0068C46.3651 93.0542 51.4501 92.3387 50.471 94.0068V94.0068ZM45.5041 90.0594C51.2517 91.6852 40.6709 86.4247 44.086 89.4611L44.8429 89.8036L45.5041 90.0594ZM55.4623 95.8149C50.5457 95.0645 60.9055 95.8669 55.4623 95.8149V95.8149ZM32.0312 80.8813C30.688 80.9662 31.8186 79.8673 32.0312 80.8813V80.8813ZM64.67 100.98C62.8936 102.343 64.8151 99.1487 64.67 100.98V100.98ZM41.3204 86.5698C39.6196 86.5304 40.9912 85.6056 41.3204 86.5698V86.5698ZM32.5475 80.2451C28.2691 78.8681 35.6725 80.0575 32.5475 80.2451V80.2451ZM22.1548 73.5274C18.7543 70.8345 21.7658 72.0293 22.1548 73.5274V73.5274ZM49.4381 90.8422C48.8657 90.1894 49.1688 90.985 49.4381 90.8422V90.8422ZM66.4201 101.263C65.4952 101.641 66.3657 100.266 66.4201 101.263V101.263ZM47.9352 89.2902C45.2705 88.9011 48.2408 88.005 47.9352 89.2902V89.2902ZM35.2838 81.2723C31.5595 79.7006 37.6086 81.0234 35.2838 81.2723V81.2723ZM56.6847 94.5703C53.1537 93.8697 60.3076 93.135 56.6847 94.5703V94.5703ZM45.5529 87.0138C49.7283 87.5522 40.5848 84.1738 44.6368 86.7115L45.5529 87.0138ZM60.0643 95.9365C63.9625 93.606 62.6773 101.394 66.6778 96.5944C70.624 93.7132 63.27 100.157 68.1334 97.1081C71.6507 94.7557 76.8457 98.2233 80.1277 99.3547C82.4878 99.2387 84.7822 101.395 87.2018 100.083C91.8594 98.8289 78.0939 98.2227 81.7023 95.997C77.4406 97.2373 74.2918 94.5183 72.1947 91.7885C67.4143 90.6846 61.887 88.2406 59.5012 84.01C58.5285 82.4216 60.9065 84.2338 58.6615 81.6374C55.7809 79.0753 54.3426 76.1669 52.4088 73.0525C50.0987 71.8201 49.8296 68.1927 49.5961 72.9309C49.6144 69.9405 46.807 67.9278 46.1217 68.7645C46.1094 65.8846 49.1262 67.3282 47.0144 65.1974C46.5598 62.2125 45.0632 59.1022 44.6133 55.7322C43.9144 54.1077 44.5149 50.6284 42.2278 54.3059C41.3946 58.1924 41.9513 49.5298 43.247 52.3864C44.9478 49.4715 42.6364 49.8143 42.5418 50.2191C43.6496 47.7596 43.243 44.2711 42.2527 45.602C42.843 42.9953 43.1853 36.0086 41.3691 37.2467C42.4701 34.5209 43.457 24.774 38.6777 28.4902C36.7408 28.5174 33.3866 29.1933 31.8011 29.9818C36.7724 32.7221 31.301 30.9714 29.2774 30.5359C29.0137 33.0715 27.0093 31.9749 24.5052 31.9997C28.5048 32.4946 22.5575 36.0904 20.2631 34.6936C17.2832 36.1178 22.8348 39.6728 20.3229 40.772C20.6316 42.4291 15.7577 40.1735 16.1405 44.0005C13.2476 42.7835 15.7421 48.5402 17.1894 46.5932C22.1097 47.9249 20.6532 50.9608 20.7785 53.8448C19.9768 55.5252 16.8205 49.8948 20.0755 50.1555C17.5075 45.984 17.2349 48.6477 15.101 50.5856C14.6046 50.7264 20.5441 53.343 16.8167 54.6368C20.096 55.1428 20.1893 58.0125 20.8569 59.8284C22.8279 61.8814 22.4245 57.5616 24.7829 60.0287C23.2905 57.8308 16.8779 53.8358 22.0409 55.1171C22.0133 52.9049 21.1071 51.1211 22.6889 51.1644C24.2554 48.3275 21.0484 58.1588 24.5792 54.5535C25.5566 54.1267 25.7987 51.713 27.5556 54.7814C30.1073 57.2916 28.4773 59.1107 24.8778 56.8121C25.5218 58.9968 29.693 59.7775 28.9091 63.1938C29.7401 66.1986 30.9027 65.0919 31.9162 64.9182C32.7111 67.8376 33.1626 65.6909 33.2003 64.3016C36.8402 65.0808 35.9876 67.2324 37.1265 68.7357C39.6348 69.8679 33.5364 61.0616 37.8426 66.0877C42.3732 70.1781 39.5417 71.8856 35.476 71.2303C38.0493 71.0224 38.8791 74.7092 42.0978 74.5797C45.033 75.976 47.0203 81.3391 41.961 79.1066C40.2062 77.5244 33.9964 75.5726 39.0684 78.582C43.7528 80.7513 47.4734 82.0491 51.9913 84.7721C55.2247 87.0803 56.6216 89.7241 57.8471 90.2474C55.1296 91.5454 49.6576 89.211 53.7209 88.4955C51.1865 88.0339 48.336 86.7523 50.7635 89.91C52.8277 91.6334 58.0766 91.4508 59.0175 91.6461C58.2199 93.4035 56.8511 93.5433 59.0502 93.6796C56.5968 94.987 59.8369 95.1894 60.0643 95.9365ZM55.0474 81.769C53.5547 80.2081 53.1688 77.2842 54.7823 79.8284C55.6097 80.1606 57.4329 84.6064 55.0474 81.769ZM71.3855 92.1473C71.4126 92.8546 72.3165 92.087 71.3855 92.1473V92.1473ZM52.6905 77.9416C52.6333 75.5815 53.2305 79.7619 52.6905 77.9416V77.9416ZM51.0667 75.7568C49.1893 72.1292 53.4336 76.7841 51.0667 75.7568V75.7568ZM31.3888 62.1751C31.9315 64.0616 32.4918 61.881 31.3888 62.1751V62.1751ZM47.0499 70.664C47.7273 68.1202 47.846 72.7984 47.0499 70.664V70.664ZM35.9858 62.9707C35.2059 61.567 37.6173 64.2871 35.9858 62.9707V62.9707ZM45.4812 66.0145C43.7025 62.0295 46.7405 63.8378 45.8747 66.6676L45.4812 66.0145ZM29.1064 55.0942C28.3112 53.7868 26.9957 49.9507 27.4192 48.7797C27.8024 50.6869 31.475 56.9873 29.2208 51.3896C26.7297 46.6972 32.1986 52.9127 32.7611 54.0831C33.0231 55.2474 31.2242 53.765 32.4431 56.495C30.2202 53.3868 31.1308 58.2118 29.1064 55.0942ZM24.0457 51.607C24.254 48.5672 25.2042 53.6915 24.0457 51.607V51.607ZM26.322 52.3906C27.4083 50.0962 28.1639 55.5893 26.322 52.3906V52.3906ZM20.8462 48.1547C18.9621 46.2824 17.5986 44.5565 20.9344 46.9927C22.2197 47.0428 18.0787 43.0679 21.2439 45.7304C24.5722 46.3373 22.8874 51.1876 20.8462 48.1547ZM23.7226 48.0795C24.3035 49.1468 24.8168 46.9952 23.7226 48.0795V48.0795ZM25.4925 48.6469C23.8337 45.5376 27.5057 49.9504 25.4925 48.6469V48.6469ZM21.9741 45.2845C16.4968 40.4101 28.8566 47.8333 22.8689 46.1882L21.9741 45.2845ZM37.6673 54.4026C35.2971 52.9814 37.0392 44.3976 37.8475 50.2683C40.1517 49.5229 37.7203 53.3002 39.4389 53.2653C39.168 55.6485 38.3992 56.5053 37.6673 54.4026ZM43.4719 57.8332C43.7043 55.2463 43.9611 59.6019 43.4719 57.8332V57.8332ZM42.4636 56.837C42.4906 58.1384 42.7246 55.7319 42.4636 56.837V56.837ZM23.0485 43.6827C19.5297 38.8279 33.275 48.5936 25.3022 44.9141C24.4691 44.6962 23.4667 44.6184 23.0485 43.6827ZM34.2262 49.6091C33.8932 45.5212 34.9699 50.2867 34.2262 49.6091V49.6091ZM42.7126 55.0531C42.7616 56.5934 43.3693 52.7245 42.7126 55.0531V55.0531ZM23.5875 41.8299C25.6789 41.3826 32.2544 45.5028 26.216 43.0068C25.5451 42.264 24.1147 42.6015 23.5875 41.8299ZM41.5466 50.7808C41.7702 46.6008 42.7952 48.284 41.5544 51.3791L41.5466 50.7808ZM25.1443 40.3754C25.9964 39.1254 22.8823 34.7241 25.5932 38.7966C26.7646 39.7273 28.9848 40.3558 27.0245 40.7474C30.1074 43.467 26.2726 41.4843 25.1443 40.3754ZM40.6584 49.4751C41.1775 52.2648 41.2471 44.7135 40.6584 49.4751V49.4751ZM23.3647 35.9774C23.7084 36.8447 24.0155 35.6993 23.3647 35.9774V35.9774ZM27.4114 38.386C28.4528 36.2007 29.3326 40.8232 27.4114 38.386V38.386ZM38.8262 44.7359C38.8152 43.8966 39.0415 45.9568 38.8262 44.7359V44.7359ZM38.165 43.2721C36.5806 39.3634 39.6387 45.3415 38.165 43.2721V43.2721ZM37.1922 40.7094C36.9262 39.0943 38.0961 42.7385 37.1922 40.7094V40.7094ZM38.7753 38.1358C37.6882 36.22 40.1482 29.6929 40.4228 33.7409C39.2753 36.8951 40.0917 38.6595 40.8922 34.429C42.3705 31.0995 40.5729 40.9991 38.7753 38.1358ZM40.4023 28.4291C40.5075 29.1302 40.8762 27.8471 40.4023 28.4291V28.4291ZM37.6853 81.9669C37.0409 81.4044 37.7662 82.3247 37.6853 81.9669V81.9669ZM43.2825 84.7982C46.3959 85.5971 46.38 84.3138 43.5661 83.9326C42.0526 82.5246 37.2769 81.0312 41.5514 83.7579C41.8344 84.475 42.729 84.4583 43.2825 84.7982ZM32.2283 77.4561C33.9435 78.7351 38.689 81.0811 34.6718 77.9429C36.0262 76.3693 32.0793 75.5317 33.3886 74.4791C30.0585 72.4413 30.7616 72.6226 33.0947 72.6867C29.0924 70.8978 33.6724 71.0316 33.4567 70.115C31.9135 69.8102 25.7915 67.3938 29.393 70.3135C25.7318 68.4467 28.5206 71.0089 27.414 70.738C23.6702 69.7172 30.748 73.5894 26.8194 72.6281C28.9672 74.3302 32.6006 76.9879 27.7274 74.4294C27.0854 75.3536 31.2147 76.7545 32.2283 77.4561ZM38.0822 80.8191C34.5926 78.0169 45.2 83.1128 38.0822 80.8191V80.8191ZM68.049 98.973C67.0761 100.178 68.1408 97.5609 68.049 98.973V98.973ZM71.129 100.269C72.7712 98.678 71.1961 102.804 73.8501 99.8798C73.8788 97.7863 73.7684 96.5498 70.8002 99.0928C69.982 99.5466 69.6167 101.476 71.129 100.269ZM22.2371 69.5643C18.7019 67.592 21.7327 67.5817 22.2371 69.5643V69.5643ZM25.526 71.7195C21.1684 69.8862 24.3047 69.6945 25.526 71.7195V71.7195ZM44.2366 83.0034C46.0634 84.626 52.6267 84.194 46.4553 83.2031C45.5413 81.8517 40.6514 82.1769 44.2366 83.0034ZM69.9575 98.8882C67.2334 99.9407 72.769 96.529 69.9575 98.8882V98.8882ZM75.8049 102.907C74.593 103.238 75.8224 102.149 75.8049 102.907V102.907ZM75.8139 101.847C72.7971 102.042 78.9273 98.5478 75.8139 101.847V101.847ZM14.1479 62.7921C11.4943 59.006 12.4983 57.3041 9.93935 54.2126C9.45491 51.8485 5.54934 46.484 7.9193 52.1673C10.0901 55.4912 10.7351 60.6376 14.1479 62.7921ZM74.8373 100.798C72.4861 99.1852 80.5653 97.0957 74.8373 100.798V100.798ZM79.2098 102.511C77.3954 101.996 82.0782 100.048 79.2098 102.511V102.511ZM21.2622 65.3793C19.1421 65.2231 22.0832 64.158 21.2622 65.3793V65.3793ZM78.2968 101.341C81.0742 99.5506 77.657 99.8255 77.7935 101.506L78.2968 101.341ZM40.6051 77.5841C39.1385 77.6867 40.5097 76.3749 40.6051 77.5841V77.5841ZM42.9345 78.9244C41.7963 79.1595 42.1942 77.4277 42.9345 78.9244V78.9244ZM82.7533 102.551C86.3114 99.9847 80.5964 102.06 82.0064 103.038L82.7533 102.551ZM81.3908 101.893C78.3307 102.969 84.2893 99.4641 81.3908 101.893V101.893ZM88.3521 106.529C85.9878 106.107 90.2982 105.225 88.3521 106.529V106.529ZM23.047 64.4986C25.6557 65.0831 33.4719 70.923 28.8606 64.9025C26.499 64.2034 27.9153 58.4305 25.5064 59.4522C27.1233 62.1533 26.8367 63.3029 23.442 61.6001C19.1754 59.5174 21.0443 62.6322 21.8781 63.4907C20.7418 63.7489 23.3812 64.4769 23.047 64.4986ZM11.1621 55.1125C11.6291 53.1809 6.86194 44.4861 8.91097 50.7558C9.65061 52.0691 9.57541 54.5582 11.1621 55.1125ZM32.9761 68.5613C31.6328 67.4379 32.9122 68.4023 32.9761 68.5613V68.5613ZM36.2839 69.3311C32.6276 68.5002 36.2822 67.285 36.2839 69.3311V69.3311ZM64.9492 87.4019C62.7881 87.3695 64.4025 86.004 64.9492 87.4019V87.4019ZM66.3258 88.4075C65.5316 88.5585 66.1226 87.625 66.3258 88.4075V88.4075ZM77.6878 95.5641C76.3241 95.461 78.7805 94.7568 77.6878 95.5641V95.5641ZM17.0987 56.6281C13.7498 55.7652 20.2243 55.418 17.0987 56.6281V56.6281ZM62.4257 85.1844C60.4332 85.6864 62.391 83.1609 62.4257 85.1844V85.1844ZM15.8638 53.7504C14.0065 53.3037 17.8715 53.0722 15.8638 53.7504V53.7504ZM21.6914 56.5733C21.0749 56.825 21.655 55.9082 21.6914 56.5733V56.5733ZM92.7705 100.16C95.3523 99.6365 101.236 101.474 102.187 99.4754C99.0513 99.3993 91.3393 97.2635 90.9744 99.9851L91.6608 100.093L92.7705 100.16ZM23.5435 57.04C21.9446 56.9634 23.5884 54.9896 23.5435 57.04V57.04ZM8.22134 46.4113C5.5748 45.8201 7.5255 42.5047 8.22134 46.4113V46.4113ZM11.8751 47.3297C8.5308 46.201 11.92 46.0753 11.8751 47.3297V47.3297ZM13.9632 48.3553C13.3596 47.8664 13.4907 48.9729 13.9632 48.3553V48.3553ZM27.1013 56.7834C25.637 56.3625 27.7199 56.2152 27.1013 56.7834V56.7834ZM12.5724 46.0424C8.34053 45.6003 12.2193 43.0918 12.5724 46.0424V46.0424ZM5.08159 41.1819C4.3516 41.6956 4.97505 39.8202 5.08159 41.1819V41.1819ZM6.19582 40.3405C5.23917 40.5459 6.01404 38.7257 6.19582 40.3405V40.3405ZM12.3523 44.0153C14.9555 42.9927 7.61038 41.9001 11.8203 43.8221L12.3523 44.0153ZM94.7466 94.9089C92.6289 94.4366 96.4128 93.3812 94.7466 94.9089V94.9089ZM104.7 100.069C103.019 100.329 105.368 98.0934 104.7 100.069V100.069ZM12.9814 40.7885C10.9176 41.1679 13.2557 38.8779 12.9814 40.7885V40.7885ZM4.22232 34.92C3.75178 32.2226 3.81614 27.4878 8.31686 29.0879C2.30914 30.2807 12.4749 36.5549 11.1911 31.6012C13.7172 31.7249 16.1328 30.1083 14.8071 32.5616C19.7843 32.0119 23.2349 27.696 28.0425 28.3008C31.7874 27.8052 35.8819 27.4293 39.9175 25.9219C43.2355 25.6828 46.4296 22.1105 44.6109 19.9931C40.086 19.6102 35.3495 20.1764 30.3483 21.1704C24.8063 22.3225 19.7724 24.5114 14.1806 25.451C8.73031 26.1831 15.2769 27.4682 13.7157 27.7545C10.8717 28.7414 17.1075 29.4068 13.347 30.4471C11.0246 30.0055 8.6073 29.2076 9.59932 26.7602C4.37838 27.4376 -0.209338 29.6045 3.91553 34.9175L4.22232 34.92ZM16.8029 28.5127C18.027 24.0032 23.3611 32.2236 18.8093 29.1117C18.2656 28.7048 17.3715 28.3729 16.8029 28.5127ZM17.0411 26.3264C17.9803 27.0643 18.8078 25.0101 17.0411 26.3264V26.3264ZM19.2844 26.362C19.4439 24.2869 24.4199 27.4605 20.1049 27.109L19.2844 26.362ZM22.3532 25.1281C22.6753 26.2929 23.4738 23.8187 22.3532 25.1281V25.1281ZM23.1382 24.6024C25.0042 22.3603 33.7057 23.1715 27.3365 24.3838C25.6294 23.0986 24.3208 25.1416 23.1382 24.6024ZM34.4938 22.852C34.2099 16.7276 40.1353 25.0284 34.4938 22.852V22.852ZM37.7159 22.8344C38.8939 19.7476 42.2873 21.5957 38.261 22.2141C38.3484 22.5426 38.1429 23.8076 37.7159 22.8344ZM11.7109 39.2041C7.97428 37.3342 15.2306 37.0488 11.7109 39.2041V39.2041ZM14.3133 39.9273C11.6319 39.3951 15.5474 38.6151 14.3133 39.9273V39.9273ZM6.64524 34.4851C4.2653 33.8978 8.65641 32.9402 6.64524 34.4851V34.4851ZM110.576 99.504C109.038 100.312 110.634 97.7116 110.576 99.504V99.504ZM100.015 92.2972C98.6579 92.4771 100.315 90.2335 100.015 92.2972V92.2972ZM113.48 100.199C116.292 100.209 122 99.3258 115.881 99.3286C114.921 99.4783 110.287 99.4462 113.48 100.199ZM16.6025 38.6624C18.8782 38.5061 20.163 36.1521 16.1624 36.2874C9.96218 35.6455 21.6328 38.4104 15.367 37.6198C14.5251 38.1774 16.5536 38.8167 16.6025 38.6624ZM18.6068 39.6768C17.903 40.453 18.3692 38.2157 18.6068 39.6768V39.6768ZM20.9842 33.3373C19.6177 33.0098 21.9718 32.1124 20.9842 33.3373V33.3373ZM13.4159 20.6864C17.4773 19.3047 23.0313 17.7522 24.949 21.3667C22.9973 19.0178 24.1614 16.7054 26.0047 20.1397C28.6112 23.6146 29.9161 18.5593 28.2208 17.3937C30.1527 19.7942 32.3501 20.9285 29.5143 17.5455C32.5959 13.8386 23.344 18.0309 21.2411 17.9886C20.2293 18.4428 10.7953 20.3946 13.4159 20.6864ZM15.7961 16.1278C18.1124 14.3796 23.8071 17.1678 20.1528 14.3904C19.7956 14.0748 12.1501 16.4965 15.7961 16.1278ZM24.2406 16.4765C26.9515 16.5457 23.0713 12.8347 26.3016 14.5162C25.7711 12.7831 22.5406 12.4586 20.9612 11.7661C20.0679 13.3507 22.7795 16.4978 24.2406 16.4765ZM17.2768 8.81103C15.6332 9.45556 18.2147 7.53968 17.2768 8.81103V8.81103ZM20.7282 9.63711C25.0968 9.05768 19.6146 7.75578 19.8479 9.59055L20.7282 9.63711ZM14.2838 4.59451C11.2078 0.579089 20.0686 5.26949 16.9434 1.06521C14.313 -1.02936 11.7854 3.4223 14.2838 4.59451ZM53.7591 25.8571C55.1699 23.3561 47.9344 22.4859 52.8086 24.9707C53.2573 25.1206 53.1558 26.03 53.7591 25.8571Z" fill="black"/>
</svg>
