<svg width="244" height="351" viewBox="0 0 244 351" fill="none" xmlns="http://www.w3.org/2000/svg">
<path d="M87 182.5C87 182.5 53 154.5 31.5 158.5C10 162.5 11.5 198 31.5 217.5C46.5591 232.183 54.5 236.5 63 243C71.1914 249.264 81.5 258.32 81.5 269.5C81.5 284.5 79 289.5 68 293M37.5 345.5C35.5 326 63.1514 320.5 68 293M68 293C51 320.5 19.5 329 3 348M68 293C36.5 308 39 314.487 13 308.5M58 151.5C58 139.5 68.4785 131.568 67 119.5C64.9816 103.026 40.2394 114.34 29.5 99.5C18.7606 84.6601 17.5 85.5 16.5 73M16.5 73C2 44 3.00005 39.5 7 29.5M16.5 73C22.5 38.5 13 36.5 29.5 3.5M16.5 73C38 52 22.5 52 41 26.5M29.5 75.5C43.5 104.5 70 87.5 77.5 102M54.5 82.5C69 67.5 51.5 47.5 77.5 42.5C84.4718 41.1593 82.5 32.5 95.5 27.5C108.5 22.5 112 22.5 122 22.5M120 238.5C84.5 238.5 86 228 65 211.5M76.5 69.5C90 67.5 88.5 56.5 86 49.5M91 287C108 275 104.5 267 108 246.5M114 70C120 87.5 98.5 182.5 110.5 194.5" stroke="url(#paint0_linear_304_12)" stroke-width="6" stroke-linecap="round" stroke-linejoin="round"/>
<path d="M157 182.74C157 182.74 191 154.781 212.5 158.775C234 162.769 232.5 198.218 212.5 217.689C197.441 232.351 189.5 236.662 181 243.152C172.809 249.407 162.5 258.45 162.5 269.614C162.5 284.592 165 289.585 176 293.08M206.5 345.504C208.5 326.032 180.849 320.54 176 293.08M176 293.08C193 320.54 224.5 329.028 241 348M176 293.08C207.5 308.058 205 314.535 231 308.557M186 151.785C186 139.803 175.521 131.882 177 119.832C179.018 103.381 203.761 114.679 214.5 99.8607C225.239 85.0423 226.5 85.881 227.5 73.3991M227.5 73.3991C242 44.4412 241 39.9478 237 29.9623M227.5 73.3991C221.5 38.9492 231 36.9521 214.5 4M227.5 73.3991C206 52.4296 221.5 52.4296 203 26.9666M214.5 75.8955C200.5 104.853 174 87.8781 166.5 102.357M189.5 82.8853C175 67.9071 192.5 47.9361 166.5 42.9434C159.528 41.6046 161.5 32.9579 148.5 27.9652C135.5 22.9724 132 22.9724 122 22.9724M124 238.659C159.5 238.659 158 228.174 179 211.698M167.5 69.9042C154 67.9071 155.5 56.9231 158 49.9332M153 287.089C136 275.106 139.5 267.118 136 246.647M130 70.4035C124 87.8781 145.5 182.74 133.5 194.723" stroke="url(#paint1_linear_304_12)" stroke-width="6" stroke-linecap="round" stroke-linejoin="round"/>
<defs>
<linearGradient id="paint0_linear_304_12" x1="122" y1="155.5" x2="3" y2="155.5" gradientUnits="userSpaceOnUse">
<stop stop-color="#12903D"/>
<stop offset="1" stop-color="#38C367"/>
</linearGradient>
<linearGradient id="paint1_linear_304_12" x1="122" y1="155.779" x2="241" y2="155.779" gradientUnits="userSpaceOnUse">
<stop stop-color="#12903D"/>
<stop offset="1" stop-color="#496753"/>
</linearGradient>
</defs>
</svg>
