<svg width="110" height="110" viewBox="0 0 110 110" fill="none" xmlns="http://www.w3.org/2000/svg">
<path d="M110 55C110 85.3757 85.3757 110 55 110C24.6243 110 0 85.3757 0 55C0 24.6243 24.6243 0 55 0C85.3757 0 110 24.6243 110 55ZM42.9688 34.375C38.2226 34.375 34.375 38.2226 34.375 42.9688V67.0312C34.375 71.7774 38.2226 75.625 42.9688 75.625C47.7149 75.625 51.5625 71.7774 51.5625 67.0312V42.9688C51.5625 38.2226 47.7149 34.375 42.9688 34.375ZM67.0312 34.375C62.2851 34.375 58.4375 38.2226 58.4375 42.9688V67.0312C58.4375 71.7774 62.2851 75.625 67.0312 75.625C71.7774 75.625 75.625 71.7774 75.625 67.0312V42.9688C75.625 38.2226 71.7774 34.375 67.0312 34.375Z" fill="#7CA575"/>
</svg>
