<svg width="110" height="110" viewBox="0 0 110 110" fill="none" xmlns="http://www.w3.org/2000/svg">
<path d="M110 55C110 85.3757 85.3757 110 55 110C24.6243 110 0 85.3757 0 55C0 24.6243 24.6243 0 55 0C85.3757 0 110 24.6243 110 55ZM46.6855 35.0153C45.6377 34.2669 44.2595 34.1668 43.1146 34.756C41.9696 35.3452 41.25 36.5249 41.25 37.8125V72.1875C41.25 73.4752 41.9696 74.6548 43.1146 75.244C44.2595 75.8332 45.6377 75.7332 46.6855 74.9847L70.748 57.7972C71.6514 57.152 72.1875 56.1102 72.1875 55C72.1875 53.8899 71.6514 52.8481 70.748 52.2028L46.6855 35.0153Z" fill="#7CA575"/>
</svg>
