<svg width="116" height="110" viewBox="0 0 116 110" fill="none" xmlns="http://www.w3.org/2000/svg">
<path fill-rule="evenodd" clip-rule="evenodd" d="M114.596 1C114.596 1 92.5479 11.5386 74.5981 13.8648C56.6483 16.1911 22.417 18.5184 15.6217 16.8763C8.82645 15.2342 3.94853 13.3167 3.94853 13.3167L5.36235 18.108L1 21.9384L1.77338 23.3055L3.56787 23.4409L9.07821 24.1244L9.8516 26.5878L12.927 26.8651L14.4677 32.0626C14.4677 32.0626 21.0034 32.6107 22.9266 32.6107C24.8498 32.6107 28.6967 32.3399 28.6967 32.3399L28.8236 34.3905L30.2374 34.6613V36.9893L27.156 39.7299L27.9294 39.8653V40.8197C27.9294 40.8197 21.0043 41.3721 18.1836 40.9616C15.3629 40.551 14.8484 40.5488 14.8484 40.5488L14.5946 40.8197L14.4677 42.0514H15.1082L15.3619 47.3907L29.597 46.8426L28.5698 65.3177L28.4429 67.6391L16.3891 66.9556L16.2622 62.0289H18.9509L19.2107 60.1137L21.6456 59.5656L22.0323 59.0239L12.927 56.8314L6.00281 58.882L7.15683 59.8429H8.31087L8.43775 61.4872L10.8727 61.6226V66.4139L8.18399 67.0975L8.69756 68.1873L9.33802 68.6V72.295H11.0056V89.3965L8.31087 89.8092L8.69756 94.7358L10.3591 95.0131L10.1054 106.234L17.4162 106.369L15.8755 95.284L26.9022 95.0131L26.1349 101.03L25.1077 105.273L36.2613 105.408L36.3882 94.465L44.0797 93.7815L43.6991 100.759L43.4393 104.86H49.9828L49.723 93.6396L50.6233 93.7815L50.877 88.4421H49.8499L49.4692 86.2496L48.8288 79.9558L49.0826 72.7077H50.4903V68.3291L48.6959 68.4645L48.9557 63.2993L51.0402 63.0929L51.1368 61.4163L52.3211 61.2422L53.5355 60.32L46.2307 58.8175L38.9863 60.4232L39.6932 61.584L40.4606 61.5195L41.3548 61.4872L41.5179 63.6023L43.536 63.5056L43.5722 68.0841L34.8838 67.8842L35.1738 62.9897L35.4577 58.5403V52.6914L35.7176 46.5331L53.1186 45.6432L73.8247 44.4502L74.018 48.3838L73.2809 57.8245L72.9607 66.6138L65.3356 66.4784L65.2994 60.32L68.121 60.2169L68.2479 58.4758L69.4019 58.3017L69.3415 57.9599L70.4955 57.8954L71.136 57.0378L62.514 55.0194L53.9222 56.8636L54.5325 57.9277L55.4932 57.8567V58.3404H56.6774V60.2878L59.209 60.32L59.1788 65.7239H56.617L56.5807 66.9556L57.481 67.0588L57.3843 71.7468L59.2755 71.85L59.0519 90.4282L56.5505 90.9377L56.5807 91.8276H57.4508V96.5866H58.8888L58.5081 103.087L58.0248 108.761L67.1301 109L66.8401 104.073L66.1694 99.9721L66.0365 96.4125L73.7643 96.2771L73.5407 101.784L73.5045 107.601L77.8668 107.942L83.7941 107.704L85.655 107.156L84.6279 104.041L84.3741 99.1467L83.8907 95.658L91.262 95.3872L90.9418 99.6625L90.9116 106.369L93.8601 106.64L96.7784 106.575L98.1862 106.13L97.3524 99.7657L97.0684 94.9745L98.3191 94.8391L98.3493 90.5637L98.6998 90.4927L98.6393 89.5706H97.1953L96.9053 86.4237L96.7784 72.7722L97.866 72.7399V68.2582L98.3191 68.3291V67.4392L96.7119 67.2974L96.7482 62.0998L99.4369 61.8613L99.2798 60.1137L100.464 60.0105L100.398 59.6687L101.969 58.882L93.987 57.2763L85.8786 58.9207L86.3921 59.8751L87.6428 59.7719L87.7093 60.1846H88.7667L88.8271 62.2353L91.4554 62.203L91.6789 67.2329L82.3863 67.1619L81.2987 59.6043L80.4286 55.5997L79.7278 48.4161L80.1447 44.2116L98.6695 42.8058L98.73 36.5443L99.6605 36.3057L99.6001 35.3513L98.8931 34.9386C98.8931 34.9386 88.7637 36.4408 85.5583 36.7829C84.6553 36.8793 84.7237 36.8729 83.9874 36.9506L83.8907 35.7898L80.0601 33.7843L80.1084 31.45L81.4256 31.4113L81.5223 28.1999C81.5223 28.1999 89.3723 27.6847 92.2892 27.0005C95.206 26.3163 99.3402 25.6334 99.3402 25.6334L101.298 20.3327L105.177 19.2042L105.497 18.3143L114.276 15.8832L115.273 15.0643L111.938 7.77741L112.258 6.13303L113.956 5.24314L115.176 1.51588L114.596 1ZM72.4169 28.7803L72.3686 31.4306L74.3564 31.5144L74.2295 34.0294L70.3324 36.583L70.0907 37.3181L71.6617 37.331L71.6496 37.9501L59.7407 38.5305L59.8193 36.77L60.363 35.893L60.3993 35.332L60.4114 34.1197L60.7497 33.3136L60.8766 32.6623V32.198L61.3902 30.1474L72.4169 28.7803ZM47.5116 31.0373L47.2216 32.8171L48.1521 33.9133L48.0917 35.8285L48.9557 37.1634L48.7321 38.7368L49.3726 39.6589L37.222 40.1361L37.1918 39.7299L38.5996 39.5558L38.6661 39.0399L35.5907 37.3697L35.4275 34.7L36.9018 34.6291L37.0287 31.753L47.5116 31.0373ZM65.4927 72.0886L72.864 72.5658L72.6103 82.4901L73.5709 90.6282L65.7525 90.3573L65.4927 72.0886ZM16.1293 72.5013L27.9294 73.1139L26.9022 79.9558V85.7079L27.736 88.9193L16.1957 89.4674L16.1293 72.5013ZM91.6487 72.5658V89.5384L84.1505 90.0865L83.8907 81.123L83.0569 72.7722L91.6487 72.5658ZM34.8535 72.9463L43.5722 72.9785L43.6628 88.7129L35.5242 88.8548L35.1073 83.754L35.0771 78.6919L34.8535 72.9463Z" fill="url(#paint0_radial_340_50)" stroke="#323232"/>
<defs>
<radialGradient id="paint0_radial_340_50" cx="0" cy="0" r="1" gradientUnits="userSpaceOnUse" gradientTransform="translate(58.1365 55) scale(57.1366 54)">
<stop stop-color="#575757"/>
<stop offset="1" stop-color="#2F2F2F"/>
</radialGradient>
</defs>
</svg>
