<svg width="483" height="110" viewBox="0 0 483 110" fill="none" xmlns="http://www.w3.org/2000/svg">
<path d="M239.231 99.2155L226.035 110L235.738 95.953L226.035 86.8904L228.169 75.1431L235.738 67.6325L207.017 65.3215L189.94 46.1572L185.283 45.6784L179.655 54.3445L175.192 55.1148L168.594 45.6784L177.133 53.2318L179.655 45.2933L186.253 42.0194L169.758 23.1467C167.042 18.7173 167.818 12.7473 169.758 10.629C171.207 7.93286 173.251 6.00708 177.133 3.50355C180.238 1.77032 190.911 1 196.15 2.92581L209.294 8.31802L207.017 1L212.257 9.5334L245.44 23.1467L259.218 43.9452L262.129 37.9753L272.22 34.7014L289.297 37.9753L299 27.9611L292.596 42.0194L269.115 43.9452L265.04 54.3445L248.545 57.2332L245.44 73.2173L232.827 82.1048L239.231 91.7049V99.2155Z" fill="white"/>
<path d="M211.092 61.2774L175.58 27.9611C169.758 23.1467 168.206 13.5177 169.758 10.629M211.092 61.2774L235.738 67.6325M211.092 61.2774L227.296 57.8109M235.738 67.6325L245.44 73.2173M235.738 67.6325L228.169 75.1431L226.035 86.8904M235.738 67.6325L207.017 65.3215L189.94 46.1572M245.44 73.2173L232.827 82.1048M245.44 73.2173L248.545 57.2332M226.035 86.8904L235.738 95.953M226.035 86.8904L232.827 82.1048M239.231 99.2155L226.035 110L235.738 95.953M239.231 99.2155L235.738 95.953M239.231 99.2155V91.7049L232.827 82.1048M248.545 57.2332L265.04 54.3445M248.545 57.2332L243.5 54.3445M265.04 54.3445L269.115 43.9452M265.04 54.3445L259.218 43.9452M272.22 34.7014L289.297 37.9753M272.22 34.7014L269.115 43.9452M272.22 34.7014L262.129 37.9753L259.218 43.9452M289.297 37.9753L299 27.9611L292.596 42.0194M289.297 37.9753L292.596 42.0194M292.596 42.0194L269.115 43.9452M259.218 43.9452L245.44 23.1467M245.44 23.1467L244.518 37.9753M245.44 23.1467L212.257 9.5334M243.5 54.3445L227.296 57.8109M243.5 54.3445L244.518 37.9753M243.5 54.3445L227.296 37.9753M227.296 57.8109V37.9753M227.296 37.9753H244.518M169.758 10.629C171.207 7.93286 173.251 6.00708 177.133 3.50355C180.238 1.77032 190.911 1 196.15 2.92581L209.294 8.31802M169.758 10.629C167.818 12.7473 167.042 18.7173 169.758 23.1467L186.253 42.0194M186.253 42.0194L179.655 45.2933M186.253 42.0194L189.94 46.1572M179.655 45.2933L177.133 53.2318M179.655 45.2933L185.283 45.6784M175.192 55.1148L168.594 45.6784L177.133 53.2318M175.192 55.1148L177.133 53.2318M175.192 55.1148L179.655 54.3445L185.283 45.6784M185.283 45.6784L189.94 46.1572M209.294 8.31802L207.017 1L212.257 9.5334M209.294 8.31802L212.257 9.5334" stroke="black"/>
<path d="M299 28.5L339 56L388.5 38.5L409.918 56L429.5 72L482 60V72V109.5H465.5H392H329H261.5H224H200.5H114.5H96.5H14H1V45L52.5 72L76 51L102 38.5L126.5 66L169 46.5L175 55C185.333 58.1667 206.2 65 207 65L225.5 87L224 109.5H261.5L239.5 99L246 73L265.5 54.5L292.5 42L299 28.5Z" fill="#F2F8EF"/>
<path d="M388.5 38.5L339 56L299 28.5L292.5 42L265.5 54.5M388.5 38.5L336 72M388.5 38.5L409.918 56M429.5 72L482 60V72M429.5 72L409.918 56M429.5 72L415 77.4104M52.5 72L1 45V109.5H14M52.5 72L76 51M52.5 72L14 109.5M52.5 72L60 92L96.5 109.5M76 51L102 38.5L126.5 66M76 51L102 92M126.5 66L169 46.5M126.5 66L102 92M169 46.5L159.5 80M169 46.5L175 55C185.333 58.1667 206.2 65 207 65M159.5 80L102 92M159.5 80L225.5 87M159.5 80L207 65M102 92H139.5M14 109.5H96.5M96.5 109.5H114.5M139.5 92L114.5 109.5M139.5 92L200.5 109.5M114.5 109.5H200.5M200.5 109.5L225.5 87M200.5 109.5H224M225.5 87L224 109.5M225.5 87L207 65M261.5 109.5L239.5 99L246 73L265.5 54.5M261.5 109.5L286 80M261.5 109.5H329M261.5 109.5H224M286 80L265.5 54.5M286 80L303.492 92M329 109.5L303.492 92M329 109.5L336 72M329 109.5L365.5 95.8806M329 109.5H465.5M265.5 54.5L336 72M336 72L303.492 92M336 72L382 62.043M409.918 56L382 62.043M382 62.043L365.5 95.8806M365.5 95.8806L415 77.4104M415 77.4104L392 109.5L454 83.1364M482 72V109.5H465.5M482 72L454 83.1364M454 83.1364L465.5 109.5" stroke="black"/>
</svg>
