<svg width="63" height="64" viewBox="0 0 63 64" fill="none" xmlns="http://www.w3.org/2000/svg">
<g clip-path="url(#clip0_4_87)">
<path fill-rule="evenodd" clip-rule="evenodd" d="M31.5 0.5C14.0962 0.5 0 14.5962 0 32C0 45.9387 9.01687 57.7119 21.5381 61.8856C23.1131 62.1612 23.7038 61.2162 23.7038 60.3894C23.7038 59.6412 23.6644 57.1606 23.6644 54.5225C15.75 55.9794 13.7025 52.5931 13.0725 50.8212C12.7181 49.9156 11.1825 47.12 9.84375 46.3719C8.74125 45.7812 7.16625 44.3244 9.80437 44.285C12.285 44.2456 14.0569 46.5687 14.6475 47.5137C17.4825 52.2781 22.0106 50.9394 23.8219 50.1125C24.0975 48.065 24.9244 46.6869 25.83 45.8994C18.8212 45.1119 11.4975 42.395 11.4975 30.3462C11.4975 26.9206 12.7181 24.0856 14.7262 21.8806C14.4113 21.0931 13.3088 17.8644 15.0412 13.5331C15.0412 13.5331 17.6794 12.7063 23.7038 16.7619C26.2237 16.0531 28.9013 15.6987 31.5788 15.6987C34.2563 15.6987 36.9338 16.0531 39.4538 16.7619C45.4781 12.6669 48.1163 13.5331 48.1163 13.5331C49.8488 17.8644 48.7463 21.0931 48.4313 21.8806C50.4394 24.0856 51.66 26.8812 51.66 30.3462C51.66 42.4344 44.2969 45.1119 37.2881 45.8994C38.43 46.8837 39.4144 48.7737 39.4144 51.7269C39.4144 55.94 39.375 59.3262 39.375 60.3894C39.375 61.2162 39.9656 62.2006 41.5406 61.8856C53.9831 57.7119 63 45.8994 63 32C63 14.5962 48.9038 0.5 31.5 0.5Z" fill="white"/>
</g>
<defs>
<clipPath id="clip0_4_87">
<rect width="63" height="63" fill="white" transform="translate(0 0.5)"/>
</clipPath>
</defs>
</svg>
