<svg width="27" height="27" viewBox="0 0 27 27" fill="none" xmlns="http://www.w3.org/2000/svg">
<path d="M0 0.999999C0 0.447715 0.447715 0 1 0H19C23.4183 0 27 3.58172 27 8V26C27 26.5523 26.5523 27 26 27H8C3.58172 27 0 23.4183 0 19V0.999999Z" fill="black"/>
<path d="M9.1 6C9.04477 6 9 6.04477 9 6.1V21.4C9 21.4552 9.04477 21.5 9.1 21.5H12.4C12.4552 21.5 12.5 21.4552 12.5 21.4V18.4333C12.5 18.3781 12.5448 18.3333 12.6 18.3333H13.7333C13.7886 18.3333 13.8333 18.3781 13.8333 18.4333V21.4C13.8333 21.4552 13.8781 21.5 13.9333 21.5H17.2333C17.2886 21.5 17.3333 21.4552 17.3333 21.4V6.1C17.3333 6.04477 17.2886 6 17.2333 6H13.9333C13.8781 6 13.8333 6.04477 13.8333 6.1V15.0667C13.8333 15.1219 13.7886 15.1667 13.7333 15.1667H12.6C12.5448 15.1667 12.5 15.1219 12.5 15.0667V6.1C12.5 6.04477 12.4552 6 12.4 6H9.1Z" fill="white" stroke="black"/>
</svg>
