<svg width="112" height="108" viewBox="0 0 112 108" fill="none" xmlns="http://www.w3.org/2000/svg">
<path d="M7.11259 25.365C-2.80352 39.6311 -1.56909 58.1914 6.00596 73.3494C6.18606 73.7128 6.37484 74.0704 6.56073 74.428C6.67984 74.6548 6.79164 74.8874 6.91508 75.1112C6.98482 75.2449 7.0632 75.3758 7.13583 75.5037C7.26505 75.745 7.39723 75.9747 7.53083 76.2102C7.7661 76.6259 8.00718 77.0388 8.25406 77.4516C8.39057 77.6784 8.52564 77.9051 8.66651 78.1319C8.93954 78.5738 9.21983 79.0099 9.50591 79.446C9.62503 79.6321 9.74118 79.8181 9.86317 79.9984C10.2582 80.5885 10.6619 81.1758 11.0787 81.7544C11.089 81.7692 11.1004 81.7864 11.1135 81.8008C11.1789 81.8938 11.2515 81.984 11.3182 82.077C11.6784 82.5741 12.0502 83.0655 12.4263 83.551C12.5643 83.7283 12.7037 83.9057 12.8431 84.083C13.1786 84.5046 13.5199 84.9232 13.867 85.3419C13.9962 85.4988 14.1269 85.6558 14.2576 85.8099C14.7238 86.3594 15.1987 86.906 15.6837 87.4409C15.6926 87.4492 15.7041 87.4612 15.7127 87.4699C15.7331 87.4932 15.7505 87.5077 15.7679 87.5309C16.2413 88.0484 16.7264 88.5543 17.2173 89.0602C17.3698 89.2172 17.5252 89.3742 17.682 89.5283C18.0625 89.912 18.4488 90.29 18.8395 90.665C18.9977 90.8162 19.1546 90.9703 19.3129 91.1156C19.8342 91.607 20.3614 92.0896 20.8988 92.5606C20.9077 92.5689 20.9147 92.5755 20.9234 92.5809C21.0149 92.6624 21.1093 92.7379 21.1994 92.8164C21.6728 93.2264 22.155 93.6334 22.64 94.0346C22.8375 94.1945 23.0379 94.3515 23.2369 94.5114C23.6333 94.8283 24.0342 95.1423 24.4379 95.4505C24.6514 95.6133 24.8648 95.7761 25.0798 95.9389C25.5256 96.2674 25.9744 96.5902 26.4275 96.9071C26.593 97.0263 26.7528 97.1426 26.9183 97.2559C26.9647 97.288 27.007 97.3199 27.0534 97.3519C27.4832 97.6484 27.9233 97.9333 28.3619 98.2183C28.5507 98.3433 28.738 98.4741 28.9283 98.5962C29.6021 99.0236 30.2862 99.4452 30.9774 99.8522C31.1648 99.9598 31.355 100.064 31.5438 100.172C32.0521 100.466 32.5633 100.753 33.0817 101.035C33.362 101.187 33.6496 101.329 33.9327 101.474C34.2987 101.666 34.6618 101.861 35.0336 102.047C35.1177 102.088 35.2049 102.129 35.2877 102.169C35.4373 102.242 35.5883 102.312 35.7379 102.387C36.3144 102.663 36.8954 102.934 37.4821 103.196C37.607 103.251 37.7276 103.306 37.851 103.361C38.5234 103.655 39.2015 103.937 39.8856 104.207C40.0497 104.274 40.2153 104.338 40.3808 104.402C41.014 104.646 41.656 104.888 42.3008 105.114C42.3821 105.143 42.4605 105.17 42.5418 105.199C43.2491 105.446 43.9637 105.675 44.6825 105.899C44.8538 105.949 45.0266 106.004 45.1995 106.053C45.9314 106.274 46.6547 106.539 47.4098 106.678C95.3664 115.432 109.297 77.8317 109.297 77.8317C97.5971 93.0886 76.8298 97.1124 57.1534 92.6325C56.4084 92.4639 55.6852 92.2313 54.9576 92.0162C54.7731 91.9609 54.5916 91.9058 54.4101 91.8505C53.6999 91.6324 52.9955 91.4028 52.2956 91.1615C52.1997 91.1267 52.1025 91.0917 52.0052 91.0568C51.3778 90.8358 50.7576 90.6032 50.1404 90.3648C49.9662 90.2951 49.7919 90.2282 49.6176 90.1584C48.9409 89.891 48.2685 89.6119 47.6048 89.3211C47.4683 89.2629 47.3376 89.2019 47.2025 89.1438C46.6317 88.885 46.0668 88.6234 45.5048 88.353C45.3422 88.2745 45.1795 88.1989 45.0139 88.1175C44.5726 87.902 44.1359 87.6721 43.7005 87.4483C43.409 87.2946 43.1128 87.1494 42.8237 86.9886C42.2919 86.704 41.7696 86.4075 41.2497 86.105C41.0737 86.0062 40.8952 85.9109 40.7179 85.8085C40.0267 85.4012 39.3438 84.9797 38.6681 84.5522C38.4813 84.4331 38.2993 84.3057 38.1149 84.183C37.6247 83.8663 37.137 83.5435 36.6563 83.2125C36.4969 83.1041 36.3434 82.9886 36.1864 82.8814C35.7224 82.5528 35.2632 82.2205 34.8075 81.8835C34.6005 81.7299 34.3971 81.5751 34.196 81.4215C33.7784 81.1012 33.3632 80.7784 32.9516 80.4474C32.7657 80.2991 32.5798 80.1508 32.3968 80.0026C31.874 79.5723 31.357 79.1391 30.8473 78.6943C30.7936 78.6479 30.7354 78.6013 30.6773 78.5519C30.1255 78.0664 29.5838 77.5692 29.0479 77.0692C28.8925 76.9209 28.7415 76.7755 28.589 76.6272C28.1925 76.2493 27.8019 75.8685 27.4185 75.4789C27.2645 75.3248 27.1106 75.1736 26.9596 75.0195C26.4716 74.5195 25.9924 74.0136 25.5233 73.4991C25.5001 73.4729 25.4754 73.4496 25.4522 73.4234C24.9555 72.8798 24.4704 72.3245 23.9955 71.7634C23.8663 71.6094 23.7414 71.4611 23.6136 71.3099C23.2592 70.8825 22.9078 70.4493 22.565 70.0132C22.4365 69.856 22.308 69.6953 22.1807 69.5333C21.7679 68.9974 21.3646 68.4628 20.9696 67.9197C10.0455 53.0046 6.12104 32.4331 14.8522 15.5388" fill="#0868AC"/>
<path d="M37.8942 13.3465C30.7229 23.6761 31.1121 37.5036 36.7062 48.4282C37.6444 50.2598 38.6987 52.0362 39.8779 53.7283C40.9526 55.2691 42.1435 57.1037 43.5696 58.3421C44.0866 58.9119 44.6268 59.4672 45.1786 60.0138C45.318 60.1563 45.4604 60.2929 45.6027 60.4325C46.1386 60.9529 46.6832 61.4646 47.2466 61.9617C47.2698 61.9791 47.2902 62.0023 47.3134 62.02C47.3194 62.0259 47.3253 62.0283 47.3293 62.0348C47.9523 62.5814 48.5956 63.1076 49.2492 63.6251C49.3945 63.7355 49.5382 63.8519 49.6849 63.9652C50.3399 64.4682 51.008 64.9624 51.6934 65.4334C51.7137 65.4483 51.7311 65.4625 51.7515 65.477C52.0536 65.6863 52.3615 65.8811 52.6679 66.0817C52.8145 66.1777 52.954 66.2794 53.1021 66.3695C53.5915 66.6835 54.0868 66.9888 54.5907 67.2824C54.6619 67.326 54.7315 67.3639 54.8013 67.4045C55.2355 67.6545 55.6755 67.9016 56.1171 68.14C56.271 68.2272 56.4278 68.3028 56.5847 68.3842C56.8897 68.5441 57.1946 68.7069 57.5054 68.861C57.5518 68.8842 57.5998 68.9046 57.6448 68.9251C58.2765 69.2362 58.914 69.5356 59.5647 69.8205C59.704 69.8816 59.8479 69.9368 59.9887 69.995C60.5086 70.2159 61.0344 70.4311 61.5629 70.6346C61.7866 70.7189 62.0131 70.8003 62.2368 70.8817C62.716 71.059 63.1967 71.2218 63.6818 71.3846C63.9011 71.4544 64.116 71.5271 64.3353 71.594C65.0251 71.8091 65.7062 72.0795 66.4251 72.1987C103.452 78.3388 112 49.804 112 49.804C104.294 60.9127 89.372 66.2124 73.4479 62.0755C72.7406 61.8894 72.0436 61.6859 71.3508 61.4678C71.1388 61.4039 70.9311 61.3342 70.7205 61.2643C70.2282 61.1044 69.7388 60.9358 69.2538 60.7584C69.0316 60.677 68.8094 60.5957 68.5915 60.5113C68.06 60.3078 67.5343 60.0956 67.0129 59.8746C66.8706 59.8136 66.7268 59.7584 66.5874 59.6944C65.9339 59.4095 65.2905 59.11 64.6559 58.796C64.3292 58.6361 64.0082 58.4675 63.6873 58.3018C63.5014 58.2059 63.314 58.1099 63.1281 58.014C62.7157 57.7901 62.3062 57.5575 61.9024 57.322C61.8066 57.2668 61.7063 57.2144 61.609 57.1563C61.108 56.8627 60.6142 56.5603 60.1248 56.2493C59.9737 56.1533 59.8285 56.0486 59.6775 55.9498C59.3551 55.7405 59.0327 55.5282 58.7161 55.3131C58.0335 54.8421 57.3698 54.3479 56.7149 53.8478C56.5639 53.7285 56.4128 53.6123 56.2647 53.4931C49.2943 47.9843 43.7693 40.4571 41.1425 31.9213C38.3895 23.0686 38.9832 13.1312 43.7527 5.06689" fill="#0868AC"/>
<path d="M63.7832 4.36635C59.5556 10.5938 59.1403 18.3276 62.0738 25.2058C65.1671 32.5061 71.5063 38.2335 78.9044 40.9486C79.2094 41.0621 79.5144 41.1637 79.8237 41.2684C79.9588 41.3091 80.0924 41.3557 80.2289 41.3962C80.6646 41.5329 81.0974 41.6928 81.5476 41.7771C101.993 45.731 107.538 31.2759 109.014 29.1484C104.156 36.1491 95.9929 37.8295 85.9768 35.3962C85.1857 35.2032 84.316 34.9174 83.5534 34.6471C82.5755 34.2982 81.6118 33.9005 80.6755 33.4503C78.8969 32.5953 77.2016 31.5569 75.63 30.3685C66.6669 23.5617 61.0991 10.5757 66.9476 0" fill="#0868AC"/>
</svg>
